<svg id="Capa_1" data-name="Capa 1" xmlns="http://www.w3.org/2000/svg" xmlns:xlink="http://www.w3.org/1999/xlink" viewBox="0 0 992 558"><defs><clipPath id="clip-path"><rect x="817.19" y="340.41" width="125.09" height="179.36" style="fill:none"/></clipPath></defs><rect x="-2.22" y="-13.6" width="1000.27" height="573.81" style="fill:#1441a3"/><polygon points="991.84 403.12 983.03 389.68 809.45 405.22 619.67 420.12 588.58 556.12 991.84 556.12 991.84 403.12" style="fill:#fff"/><path d="M613.1,397.37s-34.46,5.09-39.57,12.91-31.07,16.83-31.07,16.83-21,19.46-40.21,19.46-43.64,9-43.64,9-30.88,28.66-47.07,31.88S383,506.31,383,506.31l-13.88,4.47L359.05,519H631.52V397.3Z" style="fill:#ee6079"/><path d="M670.35,479.27q4.73-.07,9.44,0a44.62,44.62,0,0,0,7.75-.63,31.48,31.48,0,0,1,16.15,1.43,12,12,0,0,1,2.53,1.21,37.52,37.52,0,0,0,11.26,4.7,34.93,34.93,0,0,0,8.71.88c3.43,0,6.81.71,10.25.59,1.21,0,2.43,0,3.64,0a.93.93,0,0,0,.93-1,1,1,0,0,0-.84-1.07,5.32,5.32,0,0,0-1.32-.11,98.32,98.32,0,0,1-10.58-.47c-2.31-.15-4.64-.07-6.94-.38a35.42,35.42,0,0,1-13.92-5,13.16,13.16,0,0,0-2.2-1.15,32.36,32.36,0,0,0-16.58-2,51.06,51.06,0,0,1-7.07.74c-4.26,0-8.51,0-12.77,0a20.58,20.58,0,0,1-6.19-1c-2.33-.72-4.74-1.08-7.1-1.68a12.13,12.13,0,0,0-3.61-.39c-1.19.06-1.77.38-1.81,1s.55,1.14,1.71,1.17a37,37,0,0,1,8.93,1.68A33.8,33.8,0,0,0,670.35,479.27Z" style="fill:none"/><path d="M983.08,452.16a9.63,9.63,0,0,1-3.38,2c-2.54.95-5.09,1.84-7.58,2.93a43.71,43.71,0,0,1-10.63,3.06,47.71,47.71,0,0,1-6.76.48c-4.7.07-9.39,0-14.09,0-.5,0-1,0-1.49,0s-1,.29-1,.9a1.07,1.07,0,0,0,.93,1.18,7.37,7.37,0,0,0,1.49.11c4.86,0,9.72.11,14.58,0a39.86,39.86,0,0,0,9-.91c1.71-.46,3.45-.82,5.11-1.43,4.09-1.5,8.14-3.11,12.21-4.7a7.6,7.6,0,0,0,2.51-1.59,22.37,22.37,0,0,1,7.84-4.5v-2.39l-1.35.5A21.41,21.41,0,0,0,983.08,452.16Z" style="fill:none"/><path d="M760.2,437.94c.68.37,1.16,0,1.51-.58a18.36,18.36,0,0,1,1.61-2.11c1.78-2.14,4.18-3.35,6.58-4.62a11.69,11.69,0,0,1,9-.69,50.91,50.91,0,0,1,9.32,3.87c1.86.95,3.64,2.07,5.59,2.88a5.83,5.83,0,0,1,3.06,2.54,2.55,2.55,0,0,1-1.63.31,5.28,5.28,0,0,0-4.49,2.35q-2.72,3.86-5.6,7.59c-1.26,1.63-.95,3.43-.81,5.24a.89.89,0,0,0,.86.86,1,1,0,0,0,1.11-.79,4.3,4.3,0,0,0,.14-1.47,4.81,4.81,0,0,1,1.37-3.76c.86-1,1.58-2.12,2.36-3.19s1.3-1.91,2-2.83a4.52,4.52,0,0,1,3.87-1.79c5.85.05,11.71.09,17.56-.08a7.26,7.26,0,0,1,5.63,2.21,18.19,18.19,0,0,0,3.87,2.82c2.2,1.23,4.56,2.3,5.85,4.69a1.2,1.2,0,0,0,.48.44.93.93,0,0,0,1.4-.66,1.47,1.47,0,0,0-.21-1.12,9.18,9.18,0,0,0-3.21-3.48,35.79,35.79,0,0,1-7.93-5.36,6.48,6.48,0,0,0-5-1.75c-3.75.27-7.49-.33-11.25-.32a6.26,6.26,0,0,1-4.94-1.93,12.26,12.26,0,0,0-4.37-2.92,16.68,16.68,0,0,1-2.09-1,57.53,57.53,0,0,0-10.17-4.79,20.62,20.62,0,0,0-4.28-1.26c-5.53-.78-10,1.67-14.12,4.88a13.54,13.54,0,0,0-2.79,3.05,5.16,5.16,0,0,0-.65,1.14C759.62,436.91,759.55,437.57,760.2,437.94Z" style="fill:none"/><path d="M661,513.08c4.42,2.64,49.38,2.64,49.38,2.64s44.54-6.05,54.68-2.64,29.14,3.68,29.14,3.68,22.38-5.2,30.44-2.34,25,2.08,25,2.08,20.55-3.64,22.89-5.72S884.2,510,884.2,510s9.63,4.94,14.31,4.94,33.82-3.38,33.82-3.38l8.85-2.6,6.76,1.56s17.14-2,43.9-2.54V449.76a22.37,22.37,0,0,0-7.84,4.5,7.6,7.6,0,0,1-2.51,1.59c-4.07,1.59-8.12,3.2-12.21,4.7-1.66.61-3.4,1-5.11,1.43a39.86,39.86,0,0,1-9,.91c-4.86.15-9.72,0-14.58,0a7.37,7.37,0,0,1-1.49-.11,1.07,1.07,0,0,1-.93-1.18c0-.61.48-.85,1-.9s1,0,1.49,0c4.7,0,9.39,0,14.09,0a47.71,47.71,0,0,0,6.76-.48,43.71,43.71,0,0,0,10.63-3.06c2.49-1.09,5-2,7.58-2.93a9.63,9.63,0,0,0,3.38-2,21.41,21.41,0,0,1,7.41-4.29l1.35-.5V304.81c-1.62,1.47-3.23,3-4.77,4.53a46.57,46.57,0,0,1-11.24,8.88,69.41,69.41,0,0,0-10.53,7.15,33.24,33.24,0,0,0-4.72,4.39,118.93,118.93,0,0,0-8.19,11c-.76,1.16-1.6,2.25-2.46,3.33a117.45,117.45,0,0,1-8.77,9.49,38.88,38.88,0,0,1-11.32,8.51,4.6,4.6,0,0,0-.86.5c-1.57,1.15-3.54,1.51-5.12,2.62a2.91,2.91,0,0,1-1,.27,24.47,24.47,0,0,0-5.65,2.33,46.52,46.52,0,0,0-10.74,8.77,16.31,16.31,0,0,1-10.33,4.74,79.87,79.87,0,0,1-9.42.44c-6.91-.07-13.81,0-20.72,0a7.59,7.59,0,0,0-2.47.21c-2.19.76-4.49,1.14-6.67,1.84-4.27,1.36-8.64,2.34-12.88,3.76A32.26,32.26,0,0,1,833.59,389q-41.37-.07-82.73,0c-.55,0-1.1,0-1.65,0-1.48,0-1.7.17-2,1.66s-.39,3.18-.67,4.75a3,3,0,0,0,.33,2.06c.86,1.61,1.75,3.2,2.45,4.88a36.5,36.5,0,0,0,3,5.72,15.26,15.26,0,0,1,2.13,5.36,24.4,24.4,0,0,0,1,3.32,15.15,15.15,0,0,1,.64,7.83,37.17,37.17,0,0,1-3.2,10.05,14.37,14.37,0,0,1-4.4,4.86,5.24,5.24,0,0,1-1.79.83c-3.71,1-5.94-.37-6.85-4.13-.3-1.23-.59-2.47-.92-3.69a14.89,14.89,0,0,0-2.67-4.61,6.38,6.38,0,0,0-.54,1.92,18.24,18.24,0,0,1-2.4,6.82,5.4,5.4,0,0,1-6.83,2.42c-1.54-.73-2.58-.53-3.58.75-.37.47-.86.85-1.27,1.29a87.06,87.06,0,0,1-13.07,11.65,61,61,0,0,1-7.2,4.71c-1.18.61-2.4,1.13-3.54,1.8a20.71,20.71,0,0,1-9.1,3.23c-1.88.13-3.73.43-5.5-.54a4.78,4.78,0,0,0-1.28-.28c-2.16-.46-4.35-.82-6.47-1.41a32.17,32.17,0,0,0-4.35-1,6.46,6.46,0,0,0-5.47,1.6,8.67,8.67,0,0,1-1.58,1.2c-2.18,1.24-4.42,2.29-7.05,1.88a2.76,2.76,0,0,1-2.58-2.2,4.59,4.59,0,0,1,.49-3.21c1.13-1.83,2.16-3.72,3.23-5.58a7,7,0,0,0,1-3.77c0-2.15-.12-4.32,0-6.46.34-4.4.89-8.78,1.24-13.17.12-1.44.53-2.81.71-4.24.41-3.28.79-6.59,1.47-9.82,1-4.53,1.73-9.11,3.08-13.56.48-1.58.18-2-1.44-2.22a73.06,73.06,0,0,1-7.65-1.42c-4.46-1-9-.76-13.53-.88-10-.27-20-.08-30-.07V515.65C629.32,513.52,657.8,511.19,661,513.08Zm98.86-76.76a5.16,5.16,0,0,1,.65-1.14,13.54,13.54,0,0,1,2.79-3.05c4.14-3.21,8.59-5.66,14.12-4.88a20.62,20.62,0,0,1,4.28,1.26,57.53,57.53,0,0,1,10.17,4.79,16.68,16.68,0,0,0,2.09,1,12.26,12.26,0,0,1,4.37,2.92,6.26,6.26,0,0,0,4.94,1.93c3.76,0,7.5.59,11.25.32a6.48,6.48,0,0,1,5,1.75,35.79,35.79,0,0,0,7.93,5.36,9.18,9.18,0,0,1,3.21,3.48,1.47,1.47,0,0,1,.21,1.12.93.93,0,0,1-1.4.66,1.2,1.2,0,0,1-.48-.44c-1.29-2.39-3.65-3.46-5.85-4.69a18.19,18.19,0,0,1-3.87-2.82,7.26,7.26,0,0,0-5.63-2.21c-5.85.17-11.71.13-17.56.08a4.52,4.52,0,0,0-3.87,1.79c-.72.92-1.34,1.89-2,2.83s-1.5,2.19-2.36,3.19a4.81,4.81,0,0,0-1.37,3.76,4.3,4.3,0,0,1-.14,1.47,1,1,0,0,1-1.11.79.89.89,0,0,1-.86-.86c-.14-1.81-.45-3.61.81-5.24q2.88-3.74,5.6-7.59a5.28,5.28,0,0,1,4.49-2.35,2.55,2.55,0,0,0,1.63-.31,5.83,5.83,0,0,0-3.06-2.54c-1.95-.81-3.73-1.93-5.59-2.88a50.91,50.91,0,0,0-9.32-3.87,11.69,11.69,0,0,0-9,.69c-2.4,1.27-4.8,2.48-6.58,4.62a18.36,18.36,0,0,0-1.61,2.11c-.35.56-.83.95-1.51.58S759.62,436.91,759.84,436.32ZM650.08,475c0-.66.62-1,1.81-1a12.13,12.13,0,0,1,3.61.39c2.36.6,4.77,1,7.1,1.68a20.58,20.58,0,0,0,6.19,1c4.26,0,8.51,0,12.77,0a51.06,51.06,0,0,0,7.07-.74,32.36,32.36,0,0,1,16.58,2,13.16,13.16,0,0,1,2.2,1.15,35.42,35.42,0,0,0,13.92,5c2.3.31,4.63.23,6.94.38a98.32,98.32,0,0,0,10.58.47,5.32,5.32,0,0,1,1.32.11,1,1,0,0,1,.84,1.07.93.93,0,0,1-.93,1c-1.21,0-2.43,0-3.64,0-3.44.12-6.82-.59-10.25-.59a34.93,34.93,0,0,1-8.71-.88,37.52,37.52,0,0,1-11.26-4.7,12,12,0,0,0-2.53-1.21,31.48,31.48,0,0,0-16.15-1.43,44.62,44.62,0,0,1-7.75.63q-4.71-.07-9.44,0a33.8,33.8,0,0,1-9.63-1.41,37,37,0,0,0-8.93-1.68C650.63,476.15,650,475.68,650.08,475Z" style="fill:#ee6079"/><path d="M991.84,508c-26.76.54-43.9,2.54-43.9,2.54L941.18,509l-8.85,2.6s-29.14,3.38-33.82,3.38S884.2,510,884.2,510s-9.37-1.3-11.71.78-22.89,5.72-22.89,5.72-16.91.78-25-2.08-30.44,2.34-30.44,2.34-19-.26-29.14-3.68-54.68,2.64-54.68,2.64-45,0-49.38-2.64c-3.18-1.89-31.66.44-47.88,2.57-6.34.84-10.81,1.64-11.18,2.15-1.3,1.83-65.82-1.82-72.59-3.12s-44.74,3.12-47.87,3.12-32.26-.26-36.68-2.6-40.59,1.18-40.59,1.18-2.13-17.24-2.65-15-19.39,6.8-19.39,6.8l-13,3.23a30.32,30.32,0,0,1-4.81.78,3.5,3.5,0,0,1-1.72.17c-4.72-.62-8.08,6.26-11.27,8.92-5,4.13-11.34,5.66-15.33,11.11-3.75,5.11-5.41,11.16-10.54,15.26-4.56,3.64-9.8,5.41-13,10.41H991.84Z" style="fill:#ee6079"/><g id="amarillo_copia" data-name="amarillo copia"><path d="M811.59,371.08c.23-6.63-.05-13.26.25-19.87.22-5,0-10,.26-15,.06-1.68.13-3.36.13-5.05a1.1,1.1,0,0,1,.66-1,7.14,7.14,0,0,1,3.4-.88c1.07-.09,2.14-.15,3.22-.21,5.87-.36,11.75-.2,17.62-.4,6.23-.22,12.46-.52,18.7-.44h.5c1.3-.09,1.34-.09,1.32,1.28,0,.78.28,1.08,1.07,1.07,1.39,0,1.4,0,1.41,1.46,0,2.37-.07,4.74.16,7.11.06.64.27.88.9.87,2.49,0,5,0,7.46,0,1.07,0,1.1,0,1.1,1.14v4.39c0,.4,0,.8-.46,1-1.92.81-3.76,1.92-5.82,2.31a45.09,45.09,0,0,0-6.93,1.54,27.52,27.52,0,0,1-5.92,1.45c-3.09.38-5.87,1.7-8.79,2.57a7.4,7.4,0,0,0-3.78,2.12,3.61,3.61,0,0,0-.92,3.58,1.87,1.87,0,0,1,.1.81c-.58,3.11,1.11,5,3.4,6.71a16.12,16.12,0,0,0,6.88,2.63c2.65.48,5.27,1.16,7.92,1.68a7.6,7.6,0,0,1,4.42,2.71,22.05,22.05,0,0,0,1.93,2.05,2.1,2.1,0,0,1,.5,2c0,.43-.36.45-.68.31a3.2,3.2,0,0,0-1.3-.17h-1.74c-5.27.14-10.54-.14-15.81-.23-2.59,0-5.19,0-7.78-.15s-5.08,0-7.61-.17c-5-.41-10-.4-15-.45-.61,0-.83-.25-.83-.84C811.6,375,811.59,373,811.59,371.08Z" style="fill:#f6e948"/><path d="M729,270.19l5.77,2.61,15.64,7c6.75,3,13.49,6.06,20.26,9.06a26.65,26.65,0,0,1,5.65,3.51c2,1.56,4.17,3,6.32,4.36,3.87,2.51,7.72,5,11.59,7.52,1.16.75,2.35,1.45,3.51,2.2.46.29.73,0,1-.27A11.43,11.43,0,0,0,801,303.5c1.4-2.15,2.77-4.32,4.08-6.56a5.06,5.06,0,0,0,.54,2.81,7.35,7.35,0,0,0,2,2.19,3.25,3.25,0,0,1,.8,1.19c1.12,1.94-.14,3.47-.79,5.1a30.45,30.45,0,0,0-1.27,3.23c-.25.93-.73,1-1.51.86a37.25,37.25,0,0,1-9.12-2.59c-3.93-1.56-7.63-3.61-11.54-5.22-.29-.12-.58-.27-1-.45a5.08,5.08,0,0,0,.86,1.81,70.79,70.79,0,0,1,3.57,7.65c1.14,2.62,2.67,5,3.94,7.56a68.8,68.8,0,0,0,4.68,7.89c.27.39.58.75.87,1.11.12.15.24.35.45.32s.23-.29.27-.46l2.61-10.71c.48-2,1-4,1.42-6,.14-.61.41-.83,1.05-.66.83.21,1.67.33,2.51.49a.91.91,0,0,0,1.13-.58c.51-1.07.84-2.22,1.27-3.32.53-1.34,1.23-2.59,1.74-3.93a.94.94,0,0,1,.39-.51,5.87,5.87,0,0,1,4.24.34,5.6,5.6,0,0,0,3.7,1.44c.21,0,.46-.06.61.16s0,.38-.15.51c-2.32,2.58-3.72,5.73-5.49,8.65a4.27,4.27,0,0,1-1.61,1.63,1,1,0,0,0-.53,1.39c1,3.08,1.9,6.17,2.9,9.24.21.64.12,1.07-.5,1.22-1.45.33-1.58,1.29-1.59,2.58,0,3.73-.22,7.45-.13,11.17,0,.64-.23.85-.87.91a43.69,43.69,0,0,1-6.26.31c-2.86-.15-5.74-.12-8.51-1.06-.75-.26-1.12-.55-.8-1.34a3.36,3.36,0,0,0-.38-3.12c-4.32-7.64-8.58-15.32-12.85-23-2.78-5-5.57-10-8.31-15a3.38,3.38,0,0,0-2.17-1.86c-2.16-.56-4-1.79-6-2.68-5.38-2.38-10.71-4.88-16.15-7.07-3.1-1.25-6.23-2.42-9.21-3.92-2-1-4-2.08-6-3.15a19.56,19.56,0,0,0-3.25-1.43c-2.86-.91-5.44-2.44-8.18-3.61-3.45-1.48-6.86-3-10.31-4.52-1.14-.49-2.21-1.12-3.31-1.7-2.88-1.53-6-2.61-8.87-4.09-1.16-.59-2.27-1.27-3.36-2a8.3,8.3,0,0,1-1.85-2.19,10.3,10.3,0,0,1-1.66-3.12,1.18,1.18,0,0,1,.64-1.59,3.68,3.68,0,0,1,1.82-.47c.8,0,1.61,0,2.41,0a9.56,9.56,0,0,1,4.72,1c6.12,3,12.7,4.65,19.13,6.73,5.62,1.83,11.27,3.56,16.9,5.33L775,282q9.84,3.1,19.67,6.21,8.88,2.8,17.78,5.59c.42.14.86.18,1.29.29.26.07.46.21.4.53a.48.48,0,0,1-.57.45c-1.57-.13-3.14-.21-4.7-.37a31.57,31.57,0,0,1-5.85-1.7c-1.66-.5-3.33-1-5-1.44-4.87-1.33-9.7-2.79-14.51-4.31q-18.16-5.73-36.34-11.46l-17.06-5.39A1.8,1.8,0,0,0,729,270.19Z" style="fill:#f6e948"/><path d="M865,396.52c-6.29-.12-12.59-.11-18.88-.23-4-.07-8,0-11.92-.15-3.31-.14-6.63,0-9.93-.15-4-.21-7.95-.06-11.92-.14-1.07,0-1.17-.06-1.1-1.14.33-4.88.1-9.77.15-14.65,0-.59.15-.83.8-.82,2.28.05,4.57-.12,6.85-.07,1.64,0,3.31.18,5,.18,3.35,0,6.71.24,10.07,0a34.81,34.81,0,0,1,5.2.17,40.54,40.54,0,0,0,5.62,0,38.21,38.21,0,0,1,5.86,0,4.73,4.73,0,0,0,.83.07c2.86-.2,5.72.12,8.59,0a3.64,3.64,0,0,1,2.15.45c.47.3.55-.07.61-.43s-.22-1.1.21-1.3.74.45,1.11.71a29.11,29.11,0,0,0,6.18,3.3,24.05,24.05,0,0,1,4.73,2.37,12,12,0,0,0,1.49.71,1.13,1.13,0,0,1,.6,1.5c-.6,2.4-2.1,4.3-3.37,6.32a16.07,16.07,0,0,1-1.88,2.62,2,2,0,0,1-1.61.66C868.59,396.5,866.8,396.52,865,396.52Z" style="fill:#f6e948"/><path d="M933.07,378.2v17.63c0,1.52,0,1.52-1.55,1.52-2.24,0-4.48.07-6.71,0-4.5-.2-9-.11-13.49-.16-1.23,0-1.23-.18-1.5-1.33-.84-3.66-.47-7.42-1-11.1-.29-2.15-.42-4.32-.9-6.45a1.75,1.75,0,0,1,0-.32c0-3.51-1-6.87-1.8-10.23a26.56,26.56,0,0,0-2.54-6.72c-.51-.92-.37-1.11.66-1.11,1.54,0,3.09,0,4.63,0,3.34.05,6.68-.13,10-.41,2-.17,3.94-.48,5.91-.65a39.39,39.39,0,0,1,7.6.07.72.72,0,0,1,.73.82c0,.25,0,.49,0,.74Z" style="fill:#f6e948"/><path d="M805.28,375.64a54.92,54.92,0,0,1-9-.88,31.45,31.45,0,0,1-7.91-2.3.79.79,0,0,1-.53-1.08c.82-3.29,1.61-6.59,2.4-9.89q2-8.33,4-16.66c.24-1,.25-1,1.18-.63a17.15,17.15,0,0,0,8,1.57c1.56-.12,3.1-.43,4.66-.54a10,10,0,0,0,2.77-.41c.55-.19.51.25.52.57a31.6,31.6,0,0,1,0,3.23c-.32,3.56-.08,7.12-.15,10.67-.11,4.91-.26,9.82-.17,14.73,0,.76-.35,1-1,1.27C808.7,375.76,807.29,375.57,805.28,375.64Z" style="fill:#f6e948"/><path d="M919.8,349.89c0,2.62,0,5.24,0,7.86,0,.7-.21.94-.93,1-4.54.39-9.09.34-13.64.3-.79,0-1.58-.17-2.39-.17a1.28,1.28,0,0,1-1-.52,25.73,25.73,0,0,1-2-2.55,20.41,20.41,0,0,0-4.31-4.87,10.51,10.51,0,0,1-1.07-1,6,6,0,0,0-2.57-1.74A6.65,6.65,0,0,1,890,347a10.54,10.54,0,0,0-6.1-2.45c-1,0-2-.27-3-.31a23.31,23.31,0,0,0-4.09.48,25,25,0,0,0-5.41,1.13c-.82.31-1.11,0-1.12-.85,0-1.38,0-2.77,0-4.14,0-.64.19-.84.82-.74,5.85,1,11.76.68,17.65.62,3.06,0,6.13.06,9.18-.17,4.39-.34,8.76.12,13.14.11,2.5,0,5,0,7.52.11,1.07,0,1.24.18,1.24,1.27Z" style="fill:#f6e948"/><path d="M809.36,395.68c-4.66,0-9.32.1-14,0-3.5-.11-7-.07-10.51-.12-1.3,0-1.81-.72-1.38-1.92a.54.54,0,0,0-.1-.67,1.62,1.62,0,0,1-.33-1.69q1.8-7.37,3.57-14.72c.18-.73.38-1.45.5-2.18s.46-.79,1.1-.57a45.84,45.84,0,0,0,6.1,1.78,84,84,0,0,0,8.51,1c2.45.28,4.83-.1,7.24-.09.76,0,1.09.27,1,1-.61,4.4-.18,8.81-.27,13.22,0,1.47-.25,2.92-.2,4.38C810.63,396.05,809.9,395.79,809.36,395.68Z" style="fill:#f6e948"/><path d="M901.67,339c5.44-.07,10.86.51,16.3.31h.17c.47.09,1.19,0,1.15.65s-.73.3-1.13.31a25.49,25.49,0,0,1-3.81,0c-5.74-.73-11.5-.44-17.26-.41a71.62,71.62,0,0,0-8.92.23,68.39,68.39,0,0,1-7.57.08,38.15,38.15,0,0,1-6.9-.35.66.66,0,0,1-.6-.82c.08-1,.26-2.09.28-3.13,0-3.15,0-6.3,0-9.45,0-.88,0-1.76,0-2.65,0-.52.13-.8.71-.88,3.23-.45,6.34-1.45,9.5-2.17,1.86-.42,3.68-1,5.52-1.45a1.2,1.2,0,0,0,.39-.13c1.1-1,2-.54,3,.31a3.61,3.61,0,0,0,2.71,1,1.38,1.38,0,0,1,1.57,1.44c0,3.33.26,6.69-.19,10a59.13,59.13,0,0,0-.63,6.24c0,.73.16.93.93.89C898.47,339,900.07,339,901.67,339Z" style="fill:#f6e948"/><path d="M872.76,329.61c.18,2.51-.21,5.62-.18,8.74,0,.58-.2.85-.82.85a86.81,86.81,0,0,0-9.4.28c-1,.1-1.07,0-1.07-1.07,0-2.43,0-4.85,0-7.28,0-.68-.24-1-.92-.91h-.24c-1.9,0-1.93,0-1.81-1.87s.33-3.51.48-5.26c0-.42.17-.68.67-.62a115.05,115.05,0,0,0,11.89.3c1.39,0,1.39,0,1.39,1.35Zm-6-2.38v0a6.58,6.58,0,0,0,1-.06c.4-.07.69-.32.61-.74a3,3,0,0,1,.35-2c.14-.31.21-.72-.25-.81a6,6,0,0,0-2.46-.17c-.42.08-.73.27-.58.79a2.05,2.05,0,0,1-.23,1.51c-.4.83-.1,1.32.82,1.43A4.7,4.7,0,0,0,866.71,327.23Z" style="fill:#f6e948"/><path d="M779.15,292.23a34.55,34.55,0,0,0,7.33-.07,16.27,16.27,0,0,1,2.38.24c1.15.09,2.31-.09,3.46-.1a45.36,45.36,0,0,1,8.07.53,17.17,17.17,0,0,1,4.24,1.35c.72.32.55.85.26,1.3-1.17,1.8-2.2,3.69-3.48,5.42-1,1.3-1.94,2.61-2.84,4-.36.54-.66.52-1.15.24-3.26-1.86-6.41-3.87-9.5-6-2.85-2-5.91-3.63-8.75-5.63a2.37,2.37,0,0,1-.39-.3c-.25-.27-.88-.36-.72-.77S778.77,292.35,779.15,292.23Z" style="fill:#f6e948"/><path d="M692.74,254.84c-1.57.68-3,1.51-3.37,3.44a7.13,7.13,0,0,0,3.21,6.55c.46.24.84.43.81,1.09-.18,3.66-.35,7.33-.43,11-.08,3.87-.24,7.72-.33,11.58-.12,5.41-.31,10.81-.49,16.22q-.2,6-.33,12-.21,8.31-.5,16.63-.19,5.63-.33,11.25c-.11,4.13-.19,8.27-.35,12.41-.1,2.53-.17,5.06-.24,7.6a3.69,3.69,0,0,1,.49,0,4.23,4.23,0,0,1,.5,0c0-.52,0-1,0-1.57.09-4,.21-8,.32-12q.15-5.05.33-10.09c.13-3.94.22-7.89.33-11.83s.21-8,.34-12q.16-5,.32-10.09c.13-4.13.23-8.27.34-12.41.1-3.47.2-6.94.33-10.42.18-5,.25-10.09.38-15.14,0-1,.1-2,.15-3,0-.38.15-.64.57-.66s.49-.31.3-.67-.28-.54-.45-.79c-.59-.89-1.24-1.76-1.78-2.68a3.71,3.71,0,0,1-.51-2.78c.37-1.57,2.62-2.22,3.86-1.89a9.19,9.19,0,0,0,2.64.15A5.15,5.15,0,0,0,692.74,254.84Z" style="fill:#f6e948"/><path d="M864.29,310.08a71,71,0,0,1,11.38.55l.25,0c1.77,0,1.57,0,1.63,1.7.07,2-.5,3.94-.32,5.94,0,.46-.19.65-.67.55a3.24,3.24,0,0,0-.82-.06c-3.23.1-6.43-.36-9.66-.37-1.89,0-3.8-.1-5.69-.1-.85,0-1.12-.28-1.09-1.1a42.81,42.81,0,0,1,.25-6.2c.13-.65.3-1,1.1-.95C861.86,310.16,863.08,310.08,864.29,310.08Z" style="fill:#f6e948"/><path d="M814.61,303.25a20.7,20.7,0,0,1-.35-5.82,7.1,7.1,0,0,1,1.62-4.48,3,3,0,0,1,4.44-.33.88.88,0,0,1,.18,1c-1,2.81-1.15,5.54.9,8a1.27,1.27,0,0,1,.25.42c.42,1.34-1.12,3.58-2.51,3.76a5.87,5.87,0,0,1-3.59-.6c-.64-.34-1.14-.68-.91-1.52A1.37,1.37,0,0,0,814.61,303.25Z" style="fill:#f6e948"/><path d="M863.5,319.11c3.42-.05,6.84.22,10.26.21,1.2,0,2.42.16,3.63.22a14,14,0,0,0,3.49-.55c2.24-.47,4.46-1,6.66-1.65a3.24,3.24,0,0,1,2.09.32c.12,0,.29.15.31.25s-.19.25-.33.3c-.58.18-1.15.41-1.74.53-2.73.57-5.38,1.46-8.09,2.09-1.79.42-3.59.85-5.36,1.36a1.31,1.31,0,0,1-.73,0c-2-.68-4-.17-6-.25-2.66-.1-5.3-.5-8-.38-.56,0-.71-.27-.65-.79.19-1.7.18-1.7,1.9-1.7Z" style="fill:#f6e948"/><path d="M881.81,310.66c1,0,1.93,0,2.9,0a1.34,1.34,0,0,1,1.46,1.35,30,30,0,0,1,.15,4.13,1,1,0,0,1-.83,1.05c-2,.42-3.88,1.05-5.88,1.28l-.25,0c-1.49.28-1.58.28-1.46-1.28.14-1.93.14-3.85.15-5.78,0-.56.23-.8.79-.79,1,0,2,0,3,0Z" style="fill:#f6e948"/><path d="M805.63,297.63a7.51,7.51,0,0,1,.6-2.23.6.6,0,0,1,.72-.4c2.12.26,4.25.5,6.37.74.31,0,.55.12.5.49-.18,1.49,0,3-.08,4.47,0,.5-.14.95-.75.8a14.25,14.25,0,0,0-3.86-.14A3.54,3.54,0,0,1,805.63,297.63Z" style="fill:#f6e948"/><path d="M829.48,295.87a14.82,14.82,0,0,1-.64,4.65,2.78,2.78,0,0,1-2.12,2.3c-.63.13-1.09,0-1.27-.71-.5-2-1.11-4-.41-6.06a11.74,11.74,0,0,0,.5-2.85,1.47,1.47,0,0,1,2.12-1.2,2.84,2.84,0,0,1,1.81,2.79A10,10,0,0,1,829.48,295.87Z" style="fill:#f6e948"/><path d="M820.41,297a5.19,5.19,0,0,1,.6-3,.9.9,0,0,1,1.2-.54,4.45,4.45,0,0,1,1.95,1.2c.53.57.2,1.23.14,1.81a9.93,9.93,0,0,0,0,3,.8.8,0,0,1-.54,1l-.15.08c-.52.33-1,1-1.66.67a3.16,3.16,0,0,1-1.36-2A5.25,5.25,0,0,1,820.41,297Z" style="fill:#f6e948"/></g><path d="M664.28,397.79s8.37,1.92,11.61,1.39,17.21-3.47,17.21-3.47,23.78-3.6,28.09-.37,15.17-3.73,15.17-3.73,7.74-4.55,12.85-4.56,2.77,5.41,2.77,5.41l8.58,30.78-16.84,28.93-69.11,14.26-33.9-6.91Z" style="fill:#ee6079"/><g style="clip-path:url(#clip-path)"><image width="354" height="469" transform="translate(813.06 344.1) scale(0.39)" xlink:href="imagen1.png"/><image id="Capa_11_copia" data-name="Capa 11 copia" width="158" height="227" transform="translate(848.91 351.38) scale(0.4)" xlink:href="imagen2.png"/><image id="Capa_10_copia" data-name="Capa 10 copia" width="278" height="584" transform="translate(824.57 346.19) scale(0.4)" xlink:href="imagen3.png"/></g><path d="M124.16,72.67h3.14V92.31h-1V73.57h-2.11Z" style="fill:#fff"/><path d="M132.58,79.46c0-5,1.06-7.1,4.23-7.1,2.95,0,4.1,2.12,4.1,7.1v6.06c0,5-1.15,7.1-4.1,7.1-3.17,0-4.23-2.12-4.23-7.1Zm4.17,12.22c2.2,0,3.13-1.51,3.13-6.16V79.46c0-4.68-.93-6.16-3.13-6.16s-3.14,1.48-3.14,6.16v6.06C133.61,90.17,134.51,91.68,136.75,91.68Z" style="fill:#fff"/><path d="M145.44,79.46c0-5,1.06-7.1,4.22-7.1,3,0,4.11,2.12,4.11,7.1v6.06c0,5-1.15,7.1-4.11,7.1-3.16,0-4.22-2.12-4.22-7.1Zm4.16,12.22c2.21,0,3.14-1.51,3.14-6.16V79.46c0-4.68-.93-6.16-3.14-6.16s-3.14,1.48-3.14,6.16v6.06C146.46,90.17,147.37,91.68,149.6,91.68Z" style="fill:#fff"/><rect x="58.13" y="190.91" width="30.68" height="108.43" rx="3.54" style="fill:#fff"/><path d="M70.44,282.11c3,0,4,.9,4,2.94s-1,2.92-4,2.92-4-.92-4-3S67.52,282.11,70.44,282.11Zm3.77-1.46,7.52,4.18-.74,1.5-7-4.13L66.51,278l.76-1.5ZM70.46,286c2,0,2.38-.27,2.38-1s-.38-1-2.38-1-2.36.29-2.36,1S68.46,286,70.46,286Zm7.29-11.18c3,0,4,.9,4,3s-1,2.92-4,2.92-4-.92-4-3S74.84,274.86,77.75,274.86Zm0,3.93c2,0,2.38-.27,2.38-1s-.36-1-2.38-1-2.36.29-2.36,1S75.78,278.79,77.78,278.79Z" style="fill:#1441a3"/><path d="M63.88,266.52H81.46v2.69H63.88Z" style="fill:#1441a3"/><path d="M72.55,250.31h8.91v2.54H72.64c-1.22,0-1.62.24-1.62,1a2.55,2.55,0,0,0,1,1.84h9.41v2.52H72.64c-1.22,0-1.62.27-1.62,1a2.5,2.5,0,0,0,1,1.81h9.41v2.54H72.25l-3.18.27-.2-2.16,1.32-.29a3.54,3.54,0,0,1-1.46-2.85A2.38,2.38,0,0,1,70.21,256a3.43,3.43,0,0,1-1.48-2.85C68.73,251.1,70,250.31,72.55,250.31Z" style="fill:#1441a3"/><path d="M73.35,239.7H77c3,0,4.8,1.21,4.8,3.84a5.16,5.16,0,0,1-.29,1.61c.51,0,1.32,0,1.91,0h2v2.51H72.28l-3.21.27-.2-2.13,1.34-.29a3.28,3.28,0,0,1-1.48-2.65C68.73,240.64,70.44,239.7,73.35,239.7Zm0,2.51c-1.86,0-2.36.45-2.36,1.22a2.48,2.48,0,0,0,1,1.7h7.45a3.58,3.58,0,0,0,.21-1.32c0-1.17-.9-1.6-2.67-1.6Z" style="fill:#1441a3"/><path d="M81.75,234.7c0,1.91-1.12,3.1-3.84,3.1s-4.11-1.69-4.11-4.36v-.94H73c-1.51,0-2.09.33-2.09,1.64a10.63,10.63,0,0,0,.43,2.67l-1.93.38a10.57,10.57,0,0,1-.61-3.48c0-2.49,1.17-3.64,3.77-3.64h5.66l3.21-.27.18,2.09-1.37.29A2.79,2.79,0,0,1,81.75,234.7Zm-4,.67c1.46,0,1.89-.51,1.89-1.21a2.15,2.15,0,0,0-1.08-1.66H75.64v.94C75.64,234.65,76.18,235.37,77.75,235.37Z" style="fill:#1441a3"/><path d="M72.79,220.36l2.94.09v2.24H72.79c-1.48,0-2,.25-2,1.21s.56,1.24,2,1.24H77c1.84,0,2.49-.52,2.49-2.18v-2.42h2l.14,2.31c0,3.52-1.24,4.8-4.63,4.8H72.79c-2.67,0-4.08-1-4.08-3.75S70.1,220.36,72.79,220.36Z" style="fill:#1441a3"/><path d="M79.48,212.6h2l.14,1.52c0,2.36-1.13,3.46-3.53,3.46h-7V219H69.05V217.6l-3.33-.4V215h3.33v-2.38h2.06V215h6.6c1.39,0,1.77-.47,1.77-1.5Z" style="fill:#1441a3"/><path d="M73.24,211c-3,0-4.53-1.19-4.53-3.95s1.48-4,4.53-4h4c3.06,0,4.56,1.21,4.56,4S80.25,211,77.19,211Zm6.4-3.95c0-1.16-.67-1.43-2.38-1.43H73.2c-1.73,0-2.38.27-2.38,1.43s.65,1.44,2.38,1.44h4.06C79,208.49,79.64,208.2,79.64,207.05Z" style="fill:#1441a3"/><rect x="293.63" y="478.39" width="216.33" height="30.68" rx="3.54" style="fill:#fff"/><path d="M314.51,489l-.13,4.47H312V489c0-2.2-.31-2.81-1.61-2.81s-1.64.61-1.64,2.81v7.25c0,2.53.83,3.21,3,3.21h2.6v2.31l-2.6.13c-4.13,0-5.73-1.27-5.73-5.65V489c0-3.6,1.08-5.21,4.34-5.21S314.51,485.36,314.51,489Z" style="fill:#1441a3"/><path d="M319.71,502c-1.9,0-3.09-1.12-3.09-3.84s1.68-4.1,4.35-4.1h.94v-.79c0-1.5-.33-2.09-1.63-2.09a10.71,10.71,0,0,0-2.68.43l-.38-1.93a10.57,10.57,0,0,1,3.48-.61c2.49,0,3.64,1.17,3.64,3.77v5.66l.27,3.21-2.09.18-.29-1.37A2.78,2.78,0,0,1,319.71,502Zm-.67-4c0,1.46.52,1.88,1.21,1.88a2.15,2.15,0,0,0,1.66-1.08v-2.91H321C319.76,495.91,319,496.45,319,498Z" style="fill:#1441a3"/><path d="M331.79,491.48a3,3,0,0,0-2.23,1.17v9.07H327v-9.2l-.27-3.19,2.15-.2.3,1.39a2.77,2.77,0,0,1,2.49-1.39,3.46,3.46,0,0,1,1.1.16l-.18,2.28A3.64,3.64,0,0,0,331.79,491.48Z" style="fill:#1441a3"/><path d="M336.65,502c-1.9,0-3.09-1.12-3.09-3.84s1.68-4.1,4.35-4.1h.94v-.79c0-1.5-.33-2.09-1.63-2.09a10.56,10.56,0,0,0-2.67.43l-.39-1.93a10.57,10.57,0,0,1,3.48-.61c2.49,0,3.64,1.17,3.64,3.77v5.66l.27,3.21-2.09.18-.29-1.37A2.78,2.78,0,0,1,336.65,502Zm-.67-4c0,1.46.52,1.88,1.21,1.88a2.15,2.15,0,0,0,1.66-1.08v-2.91h-.94C336.7,495.91,336,496.45,336,498Z" style="fill:#1441a3"/><path d="M351,493.06,350.9,496h-2.24v-2.94c0-1.49-.25-2-1.21-2s-1.24.56-1.24,2v4.19c0,1.84.52,2.49,2.18,2.49h2.42v2l-2.31.14c-3.52,0-4.8-1.23-4.8-4.62v-4.22c0-2.68,1-4.09,3.75-4.09S351,490.36,351,493.06Z" style="fill:#1441a3"/><path d="M358.76,499.74v2l-1.53.14c-2.35,0-3.45-1.12-3.45-3.52v-7h-1.44v-2.06h1.41l.41-3.32h2.15v3.32h2.38v2.06h-2.38V498c0,1.39.47,1.77,1.51,1.77Z" style="fill:#1441a3"/><path d="M362.82,496.83v.47c0,1.86.47,2.44,2.35,2.44h2.59v2l-2.59.13c-3.61,0-4.82-1.43-4.82-4.55v-3.91c0-2.85,1.08-4.42,3.88-4.42s3.8,1.5,3.8,4.71l-.14,3.15Zm0-1.84h2.87V493.3c0-1.59-.29-2.26-1.43-2.26s-1.44.67-1.44,2.26Z" style="fill:#1441a3"/><path d="M375.16,491.48a3,3,0,0,0-2.22,1.17v9.07H370.4v-9.2l-.27-3.19,2.16-.2.29,1.39a2.77,2.77,0,0,1,2.49-1.39,3.46,3.46,0,0,1,1.1.16l-.18,2.28A3.64,3.64,0,0,0,375.16,491.48Z" style="fill:#1441a3"/><path d="M380.12,489.31v12.41h-2.54V489.31Zm-1-5.3h2.53l-.38,1.17-1.71,2.62h-1.86Z" style="fill:#1441a3"/><path d="M390,492.52l-.07,1h-2.33v-.8c0-1.33-.27-1.8-1.21-1.8s-1.19.38-1.19,1.42c0,1.25.89,1.77,1.93,2.33,1.52.78,3.09,1.53,3.09,4,0,2.18-1.05,3.44-3.81,3.44s-3.75-1.1-3.75-3.28l.07-.9h2.35v.63c0,1.14.39,1.59,1.33,1.59s1.35-.33,1.35-1.39c0-1.23-1-1.66-2.23-2.29a4.33,4.33,0,0,1-2.78-4.13c0-2.17,1.12-3.32,3.64-3.32S390,490.21,390,492.52Z" style="fill:#1441a3"/><path d="M397.8,499.74v2l-1.53.14c-2.35,0-3.45-1.12-3.45-3.52v-7h-1.44v-2.06h1.42l.4-3.32h2.15v3.32h2.38v2.06h-2.38V498c0,1.39.48,1.77,1.51,1.77Z" style="fill:#1441a3"/><path d="M399.48,486.23a1.51,1.51,0,1,1,1.51,1.62A1.41,1.41,0,0,1,399.48,486.23Zm2.76,3.08v12.41h-2.53V489.31Z" style="fill:#1441a3"/><path d="M412.05,493.06,412,496h-2.25v-2.94c0-1.49-.24-2-1.21-2s-1.23.56-1.23,2v4.19c0,1.84.51,2.49,2.18,2.49h2.42v2l-2.31.14c-3.53,0-4.81-1.23-4.81-4.62v-4.22c0-2.68,1-4.09,3.75-4.09S412.05,490.36,412.05,493.06Z" style="fill:#1441a3"/><path d="M417,502c-1.9,0-3.09-1.12-3.09-3.84s1.68-4.1,4.35-4.1h.94v-.79c0-1.5-.33-2.09-1.63-2.09a10.71,10.71,0,0,0-2.68.43l-.38-1.93a10.57,10.57,0,0,1,3.48-.61c2.49,0,3.64,1.17,3.64,3.77v5.66l.27,3.21-2.09.18-.29-1.37A2.79,2.79,0,0,1,417,502Zm-.67-4c0,1.46.52,1.88,1.21,1.88a2.15,2.15,0,0,0,1.66-1.08v-2.91h-.94C417,495.91,416.31,496.45,416.31,498Z" style="fill:#1441a3"/><path d="M430.54,502c-1.91,0-3.1-1.12-3.1-3.84s1.68-4.1,4.35-4.1h.95v-.79c0-1.5-.34-2.09-1.64-2.09a10.56,10.56,0,0,0-2.67.43l-.38-1.93a10.46,10.46,0,0,1,3.47-.61c2.5,0,3.64,1.17,3.64,3.77v5.66l.27,3.21-2.09.18-.29-1.37A2.76,2.76,0,0,1,430.54,502Zm-.68-4c0,1.46.52,1.88,1.22,1.88a2.19,2.19,0,0,0,1.66-1.08v-2.91h-.95C430.58,495.91,429.86,496.45,429.86,498Z" style="fill:#1441a3"/><path d="M438.39,489.31V488c0-2.94,1.19-4.22,3.5-4.22a7.06,7.06,0,0,1,2.22.38l-.4,2a5.61,5.61,0,0,0-1.3-.21c-1.24,0-1.48.77-1.48,2.18v1.17h2.22v2.06h-2.22v10.35h-2.54V491.37H437v-2.06Z" style="fill:#1441a3"/><path d="M446.72,496.83v.47c0,1.86.47,2.44,2.35,2.44h2.58v2l-2.58.13c-3.61,0-4.82-1.43-4.82-4.55v-3.91c0-2.85,1.07-4.42,3.88-4.42s3.79,1.5,3.79,4.71l-.13,3.15Zm0-1.84h2.87V493.3c0-1.59-.29-2.26-1.44-2.26s-1.43.67-1.43,2.26Z" style="fill:#1441a3"/><path d="M461.32,493.06l-.09,2.94H459v-2.94c0-1.49-.25-2-1.21-2s-1.24.56-1.24,2v4.19c0,1.84.52,2.49,2.18,2.49h2.42v2l-2.31.14c-3.52,0-4.8-1.23-4.8-4.62v-4.22c0-2.68,1-4.09,3.75-4.09S461.32,490.36,461.32,493.06Z" style="fill:#1441a3"/><path d="M469.09,499.74v2l-1.53.14c-2.36,0-3.46-1.12-3.46-3.52v-7h-1.43v-2.06h1.41l.41-3.32h2.15v3.32H469v2.06h-2.38V498c0,1.39.47,1.77,1.5,1.77Z" style="fill:#1441a3"/><path d="M473.48,502c-1.9,0-3.09-1.12-3.09-3.84s1.68-4.1,4.35-4.1h.94v-.79c0-1.5-.33-2.09-1.63-2.09a10.71,10.71,0,0,0-2.68.43l-.38-1.93a10.57,10.57,0,0,1,3.48-.61c2.49,0,3.64,1.17,3.64,3.77v5.66l.27,3.21-2.09.18-.29-1.37A2.79,2.79,0,0,1,473.48,502Zm-.67-4c0,1.46.52,1.88,1.21,1.88a2.15,2.15,0,0,0,1.66-1.08v-2.91h-.94C473.53,495.91,472.81,496.45,472.81,498Z" style="fill:#1441a3"/><path d="M488.72,501.72l-2.13.18-.29-1.37a3.19,3.19,0,0,1-2.63,1.48c-2.2,0-3.14-1.7-3.14-4.62v-3.68c0-3.08,1.32-4.74,4-4.74a4.47,4.47,0,0,1,1.5.27c0-.52,0-1.26,0-1.91v-3.19h2.51v14.37ZM486,491.33a3.33,3.33,0,0,0-1.28-.23c-1.19,0-1.64.83-1.64,2.58v3.69c0,1.88.47,2.42,1.24,2.42a2.29,2.29,0,0,0,1.68-1Z" style="fill:#1441a3"/><path d="M493.77,502c-1.91,0-3.1-1.12-3.1-3.84s1.68-4.1,4.36-4.1H496v-.79c0-1.5-.34-2.09-1.64-2.09a10.63,10.63,0,0,0-2.67.43l-.38-1.93a10.52,10.52,0,0,1,3.48-.61c2.49,0,3.63,1.17,3.63,3.77v5.66l.27,3.21-2.09.18-.29-1.37A2.76,2.76,0,0,1,493.77,502Zm-.67-4c0,1.46.51,1.88,1.21,1.88a2.17,2.17,0,0,0,1.66-1.08v-2.91H495C493.81,495.91,493.1,496.45,493.1,498Z" style="fill:#1441a3"/><path d="M133,255.06h-1.82V244.77h6.71v.94h-5.68v8.42H133c3.13,0,5.1,1.17,5.1,5,0,3.68-1.69,5.28-5.32,5.28H131v-.94h1.84c3,0,4.2-1.29,4.2-4.31C137,255.94,135.57,255.06,133,255.06Z" style="fill:#fff"/><path d="M142.12,251.56c0-5,1.06-7.09,4.23-7.09,3,0,4.1,2.11,4.1,7.09v6.07c0,5-1.14,7.09-4.1,7.09-3.17,0-4.23-2.11-4.23-7.09Zm4.17,12.23c2.2,0,3.14-1.51,3.14-6.16v-6.07c0-4.68-.94-6.15-3.14-6.15s-3.14,1.47-3.14,6.15v6.07C143.15,262.28,144.05,263.79,146.29,263.79Z" style="fill:#fff"/><path d="M137.38,424.52c0-5,1.06-7.09,4.23-7.09,3,0,4.1,2.11,4.1,7.09v6.07c0,5-1.14,7.09-4.1,7.09-3.17,0-4.23-2.11-4.23-7.09Zm4.17,12.22c2.2,0,3.14-1.5,3.14-6.15v-6.07c0-4.68-.94-6.16-3.14-6.16s-3.14,1.48-3.14,6.16v6.07C138.41,435.24,139.32,436.74,141.55,436.74Z" style="fill:#fff"/><rect x="191.22" y="73.73" width="93.82" height="364.46" rx="14.12" style="fill:#ee6079"/><rect x="352.93" y="136.5" width="93.82" height="301.69" rx="14.12" style="fill:#ecdf0e"/><rect x="512.48" y="73.73" width="93.82" height="364.46" rx="14.12" style="fill:#fff"/><path d="M298.33,433v-3.66l16.84-2.27v1.47l-4.33.58v4.1l4.33.58v1.47Zm11.21-3.73-9.87,1.28v1.25l9.87,1.25Z" style="fill:#fff"/><path d="M314,421.63h1.16l.07.93c0,1.46-.76,2.06-2.29,2.06H298.33v-1.37h14.51c.93,0,1.19-.33,1.19-1Z" style="fill:#fff"/><path d="M299.37,418.07h2.32v1.4h-2.32Zm3.9,0h11.9v1.38h-11.9Z" style="fill:#fff"/><path d="M306.85,403h8.32v1.4h-8.32c-1.9,0-2.57.24-2.57,1.32a3.15,3.15,0,0,0,1.64,2.41h9.25v1.38h-8.32c-1.9,0-2.57.24-2.57,1.34a3.07,3.07,0,0,0,1.64,2.39h9.25v1.41H306l-2.76.23-.13-1.23,1.51-.21A3.5,3.5,0,0,1,303,410.7a2.1,2.1,0,0,1,1.7-2.31,3.43,3.43,0,0,1-1.7-2.8C303,403.58,304.24,403,306.85,403Z" style="fill:#fff"/><path d="M310.32,398.77h.47c2.35,0,3.22-.43,3.22-2.78v-2h1.16l.06,2c0,3.26-1.35,4.14-4.44,4.14h-3.6c-2.8,0-4.2-.9-4.2-3.25s1.4-3.09,4.27-3.09l3.06.07Zm-1.15,0v-3.66h-2c-2.18,0-3,.41-3,1.77s.79,1.89,3,1.89Z" style="fill:#fff"/><path d="M306.85,384.26h8.32v1.4h-8.32c-1.9,0-2.57.28-2.57,1.36a3.28,3.28,0,0,0,1.64,2.46h9.25v1.4H306l-2.76.24-.13-1.23,1.51-.22a3.57,3.57,0,0,1-1.66-2.82C303,384.84,304.24,384.26,306.85,384.26Z" style="fill:#fff"/><path d="M314,376.76h1.16l.07,1.08c0,2-.87,2.89-3.07,2.89h-7.72v1.44h-1.2v-1.42l-3.15-.24v-1.18h3.15v-2.44h1.2v2.44H312c1.6,0,2-.54,2-1.64Z" style="fill:#fff"/><path d="M307.21,375c-2.89,0-4.22-1-4.22-3.27s1.33-3.28,4.22-3.28h4c2.91,0,4.25,1,4.25,3.28s-1.34,3.27-4.25,3.27Zm7-3.27c0-1.47-.93-1.9-3-1.9h-4c-2.07,0-3,.43-3,1.9s.92,1.89,3,1.89h4C313.27,373.65,314.2,373.22,314.2,371.76Z" style="fill:#fff"/><path d="M306.85,354.88h8.32v1.37h-8.32c-1.9,0-2.57.29-2.57,1.38a3.28,3.28,0,0,0,1.64,2.46h9.25v1.38H298.33v-1.38h4.42c.6,0,1.25,0,1.79.07a3.48,3.48,0,0,1-1.55-2.72C303,355.46,304.24,354.88,306.85,354.88Z" style="fill:#fff"/><path d="M298.5,348.21v-1.49l1,.41,2.3,1.28v1.12Zm16.93,1.32c0,1.74-1.19,2.74-3.56,2.74-2.85,0-3.92-1.71-3.92-4v-1h-1.34c-1.66,0-2.35.37-2.35,1.75a9.3,9.3,0,0,0,.43,2.52l-1.08.28a8.75,8.75,0,0,1-.58-2.95c0-2.14,1.12-3,3.26-3h6.08l2.8-.21.11,1.18-1.51.24A2.72,2.72,0,0,1,315.43,349.53Zm-3.6,1.36c1.66,0,2.37-.56,2.37-1.56s-1.1-1.74-1.68-2.11h-3.43v1C309.09,349.85,309.71,350.89,311.83,350.89Z" style="fill:#fff"/><path d="M298.33,342.58v-1.37h4.29c.6,0,1.34,0,1.9.06a3.13,3.13,0,0,1-1.53-2.48c0-2,1.59-2.7,4.27-2.7h3.68c3,0,4.49,1,4.49,3.33a7.47,7.47,0,0,1-.74,3.16Zm8.93-5.11c-2.09,0-3,.48-3,1.58s1,1.74,1.64,2.18h8a4.17,4.17,0,0,0,.33-1.71c0-1.51-1.12-2-3.24-2Z" style="fill:#fff"/><path d="M299.37,331.67h2.32v1.41h-2.32Zm3.9,0h11.9v1.38h-11.9Z" style="fill:#fff"/><path d="M314,324.09h1.16l.07,1.07c0,2-.87,2.89-3.07,2.89h-7.72v1.45h-1.2v-1.43l-3.15-.23v-1.19h3.15v-2.44h1.2v2.44H312c1.6,0,2-.54,2-1.64Z" style="fill:#fff"/><path d="M315.43,319.92c0,1.75-1.19,2.74-3.56,2.74-2.85,0-3.92-1.7-3.92-4v-1h-1.34c-1.66,0-2.35.36-2.35,1.74a9.37,9.37,0,0,0,.43,2.53l-1.08.28a8.81,8.81,0,0,1-.58-3c0-2.13,1.12-2.95,3.26-2.95h6.08l2.8-.22.11,1.19-1.51.24A2.71,2.71,0,0,1,315.43,319.92Zm-3.6,1.36c1.66,0,2.37-.56,2.37-1.55,0-1.14-1.1-1.75-1.68-2.11h-3.43v1C309.09,320.25,309.71,321.28,311.83,321.28Z" style="fill:#fff"/><path d="M314,308.82h1.16l.07,1.08c0,2-.87,2.89-3.07,2.89h-7.72v1.44h-1.2v-1.42l-3.15-.24v-1.18h3.15V309h1.2v2.44H312c1.6,0,2-.54,2-1.64Z" style="fill:#fff"/><path d="M458.11,429.12h1.36V434h7.26v-4h1.32v4h5.54v-4.85H475v6.32H458.11Z" style="fill:#fff"/><path d="M470,423.15v1.07l5,1.51v1.4l-5.59-1.76L463.05,427v-1.42l5.69-1.29v-1.1l-5.69-1.32v-1.4l6.29,1.6,5.61-1.77v1.4Z" style="fill:#fff"/><path d="M473.81,413.62H475l.06,1.07c0,2-.86,2.89-3.06,2.89h-7.72V419h-1.2V417.6l-3.15-.23v-1.19h3.15v-2.43h1.2v2.43h7.55c1.6,0,2-.54,2-1.64Z" style="fill:#fff"/><path d="M464.23,407.64a2.89,2.89,0,0,0,1.62,2.46H475v1.4h-9.14l-2.76.24-.13-1.23,1.55-.21a2.9,2.9,0,0,1-1.55-2.61,3.24,3.24,0,0,1,.13-.93l1.25.13A3.81,3.81,0,0,0,464.23,407.64Z" style="fill:#fff"/><path d="M475.21,403.14c0,1.74-1.19,2.74-3.56,2.74-2.85,0-3.92-1.71-3.92-4v-1h-1.34c-1.66,0-2.35.37-2.35,1.75a9.3,9.3,0,0,0,.43,2.52l-1.08.28a8.75,8.75,0,0,1-.58-2.95c0-2.14,1.12-3,3.26-3h6.08l2.8-.21.11,1.18-1.51.24A2.73,2.73,0,0,1,475.21,403.14Zm-3.6,1.36c1.66,0,2.37-.57,2.37-1.56s-1.1-1.74-1.68-2.11h-3.43v1C468.87,403.46,469.49,404.5,471.61,404.5Z" style="fill:#fff"/><path d="M466.67,390.61l2.56,0v1.29h-2.56c-2.05,0-2.67.35-2.67,1.62s.66,1.71,2.67,1.71h3.92c2.29,0,3.22-.44,3.22-2.63V390.7H475l.06,1.92c0,3.14-1.31,4-4.44,4h-3.92c-2.72,0-3.9-.86-3.9-3.08S463.93,390.61,466.67,390.61Z" style="fill:#fff"/><path d="M466.67,382.05l2.56,0v1.3h-2.56c-2.05,0-2.67.34-2.67,1.61s.66,1.71,2.67,1.71h3.92c2.29,0,3.22-.44,3.22-2.63v-1.92H475l.06,1.92c0,3.14-1.31,4-4.44,4h-3.92c-2.72,0-3.9-.87-3.9-3.09S463.93,382.05,466.67,382.05Z" style="fill:#fff"/><path d="M459.14,377.67h2.33v1.41h-2.33Zm3.91,0H475v1.38h-11.9Z" style="fill:#fff"/><path d="M458.28,370.82v-1.49l1,.41,2.3,1.27v1.12Zm8.71,3.86c-2.89,0-4.22-1-4.22-3.28s1.33-3.28,4.22-3.28h4c2.91,0,4.25,1,4.25,3.28s-1.34,3.28-4.25,3.28Zm7-3.28c0-1.47-.93-1.9-3-1.9h-4c-2.07,0-3,.43-3,1.9s.92,1.9,3,1.9h4C473.05,373.3,474,372.87,474,371.4Z" style="fill:#fff"/><path d="M466.63,358.53H475v1.4h-8.32c-1.9,0-2.57.28-2.57,1.36a3.3,3.3,0,0,0,1.64,2.46H475v1.4h-9.14l-2.76.23-.13-1.23,1.51-.21a3.59,3.59,0,0,1-1.66-2.83C462.77,359.11,464,358.53,466.63,358.53Z" style="fill:#fff"/><path d="M464.23,347.38a2.9,2.9,0,0,0,1.62,2.46H475v1.4h-9.14l-2.76.24-.13-1.23,1.55-.22a2.87,2.87,0,0,1-1.55-2.61,3.16,3.16,0,0,1,.13-.92l1.25.13A3.74,3.74,0,0,0,464.23,347.38Z" style="fill:#fff"/><path d="M470.1,343.84h.47c2.35,0,3.21-.43,3.21-2.78v-2H475l.06,2c0,3.26-1.36,4.14-4.44,4.14H467c-2.8,0-4.2-.9-4.2-3.25s1.4-3.09,4.27-3.09l3.06.07Zm-1.15,0v-3.66h-2c-2.18,0-3,.41-3,1.77s.79,1.89,3,1.89Z" style="fill:#fff"/><path d="M466.11,330.22l1,0v1.29h-.88c-1.64,0-2.27.44-2.27,1.64s.58,1.66,1.88,1.66,2.07-.88,2.65-1.94c.75-1.36,1.44-2.84,3.73-2.84,1.94,0,3,.95,3,3.12s-1,3.11-3.11,3.11l-.71-.05V335H472c1.51,0,2-.54,2-1.77s-.47-1.76-1.83-1.76-2,1.07-2.65,2.26a3.94,3.94,0,0,1-3.77,2.52c-2,0-3-.93-3-3S463.87,330.22,466.11,330.22Z" style="fill:#fff"/><path d="M467,320.75h3.68c2.83,0,4.49,1,4.49,3.37a4.16,4.16,0,0,1-.48,1.79c.56,0,1.23-.05,1.81-.05h2.14v1.38H465.83l-2.78.24-.11-1.19,1.49-.23a3.25,3.25,0,0,1-1.66-2.57C462.77,321.51,464.38,320.75,467,320.75Zm0,1.38c-2.1,0-3,.48-3,1.58s1.12,1.83,1.64,2.17h7.85a4.09,4.09,0,0,0,.43-1.7c0-1.53-1.12-2.05-3.24-2.05Z" style="fill:#fff"/><path d="M467,318.17c-2.89,0-4.22-1-4.22-3.28s1.33-3.28,4.22-3.28h4c2.91,0,4.25,1,4.25,3.28s-1.34,3.28-4.25,3.28Zm7-3.28c0-1.47-.93-1.9-3-1.9h-4c-2.07,0-3,.43-3,1.9s.92,1.9,3,1.9h4C473.05,316.79,474,316.35,474,314.89Z" style="fill:#fff"/><path d="M466.63,302H475v1.4h-8.32c-1.9,0-2.57.28-2.57,1.36a3.27,3.27,0,0,0,1.64,2.45H475v1.4h-9.14l-2.76.24-.13-1.23,1.51-.21a3.6,3.6,0,0,1-1.66-2.83C462.77,302.6,464,302,466.63,302Z" style="fill:#fff"/><path d="M466.11,293l1,0v1.3h-.88c-1.64,0-2.27.43-2.27,1.64s.58,1.66,1.88,1.66,2.07-.89,2.65-1.94c.75-1.36,1.44-2.85,3.73-2.85,1.94,0,3,.95,3,3.13s-1,3.1-3.11,3.1l-.71,0v-1.3H472c1.51,0,2-.53,2-1.76s-.47-1.77-1.83-1.77-2,1.08-2.65,2.26a4,4,0,0,1-3.77,2.53c-2,0-3-.93-3-3S463.87,293,466.11,293Z" style="fill:#fff"/><path d="M475.21,288c0,1.75-1.19,2.74-3.56,2.74-2.85,0-3.92-1.71-3.92-4v-1h-1.34c-1.66,0-2.35.37-2.35,1.75a9.3,9.3,0,0,0,.43,2.52l-1.08.28a8.75,8.75,0,0,1-.58-2.95c0-2.14,1.12-3,3.26-3h6.08l2.8-.21.11,1.18-1.51.24A2.73,2.73,0,0,1,475.21,288Zm-3.6,1.36c1.66,0,2.37-.56,2.37-1.56s-1.1-1.74-1.68-2.11h-3.43v1C468.87,288.28,469.49,289.32,471.61,289.32Z" style="fill:#fff"/><path d="M458.11,281v-1.38h4.29c.6,0,1.34,0,1.9.06a3.12,3.12,0,0,1-1.53-2.48c0-2,1.59-2.69,4.27-2.69h3.68c3,0,4.49,1,4.49,3.32a7.56,7.56,0,0,1-.74,3.17Zm8.93-5.11c-2.1,0-3,.47-3,1.57s1,1.75,1.64,2.18h7.95A4.17,4.17,0,0,0,474,278c0-1.51-1.12-2-3.24-2Z" style="fill:#fff"/><path d="M473.81,268.62H475l.06.92c0,1.47-.75,2.07-2.28,2.07H458.11v-1.38h14.51c.93,0,1.19-.32,1.19-1Z" style="fill:#fff"/><path d="M470.1,265.53h.47c2.35,0,3.21-.43,3.21-2.78v-2H475l.06,2c0,3.26-1.36,4.14-4.44,4.14H467c-2.8,0-4.2-.9-4.2-3.25s1.4-3.09,4.27-3.09l3.06.07Zm-1.15,0v-3.66h-2c-2.18,0-3,.41-3,1.77s.79,1.89,3,1.89Z" style="fill:#fff"/><path d="M619.46,430.32h1.36v3.11H636.3v1.46H620.82V438h-1.36Z" style="fill:#fff"/><path d="M632.72,429.37H624.4V428h8.3c1.85,0,2.58-.26,2.58-1.38a2.85,2.85,0,0,0-1.68-2.18h-9.2V423h9.09l2.81-.21.1,1.18-1.5.24a3.3,3.3,0,0,1,1.66,2.63C636.56,428.7,635.41,429.37,632.72,429.37Z" style="fill:#fff"/><path d="M625.58,415.88a2.86,2.86,0,0,0,1.62,2.45h9.1v1.4h-9.14l-2.76.24-.13-1.23,1.55-.21a2.9,2.9,0,0,1-1.55-2.61,3.24,3.24,0,0,1,.13-.93l1.25.13A3.91,3.91,0,0,0,625.58,415.88Z" style="fill:#fff"/><path d="M620.49,411.87h2.33v1.4h-2.33Zm3.91,0h11.9v1.38H624.4Z" style="fill:#fff"/><path d="M627.46,402.74l1,.05v1.29h-.89c-1.63,0-2.26.43-2.26,1.64s.58,1.66,1.88,1.66,2.07-.88,2.65-1.94c.75-1.36,1.44-2.85,3.73-2.85,1.94,0,3,1,3,3.13s-1,3.1-3.11,3.1l-.71,0v-1.29h.63c1.51,0,2-.54,2-1.77s-.47-1.77-1.83-1.77-2,1.08-2.65,2.27a3.94,3.94,0,0,1-3.78,2.52c-1.94,0-3-.93-3-3S625.21,402.74,627.46,402.74Z" style="fill:#fff"/><path d="M628,388.13h8.33v1.4H628c-1.89,0-2.56.23-2.56,1.31a3.16,3.16,0,0,0,1.64,2.42h9.25v1.38H628c-1.89,0-2.56.23-2.56,1.33a3.1,3.1,0,0,0,1.64,2.4h9.25v1.4h-9.14l-2.76.24-.13-1.23,1.51-.22a3.48,3.48,0,0,1-1.66-2.78,2.1,2.1,0,0,1,1.7-2.31,3.43,3.43,0,0,1-1.7-2.8C624.12,388.67,625.37,388.13,628,388.13Z" style="fill:#fff"/><path d="M628.34,385.21c-2.89,0-4.22-1-4.22-3.27s1.33-3.28,4.22-3.28h4c2.91,0,4.25,1,4.25,3.28s-1.34,3.27-4.25,3.27Zm7-3.27c0-1.47-.93-1.9-3-1.9h-4c-2.07,0-3,.43-3,1.9s.93,1.89,3,1.89h4C634.4,383.83,635.33,383.4,635.33,381.94Z" style="fill:#fff"/><path d="M631.45,370.73h.47c2.35,0,3.21-.44,3.21-2.79v-2h1.17l.06,2c0,3.26-1.36,4.14-4.44,4.14h-3.6c-2.8,0-4.2-.9-4.2-3.25s1.4-3.08,4.26-3.08l3.07.06Zm-1.15,0v-3.67h-2c-2.18,0-3,.41-3,1.77s.8,1.9,3,1.9Z" style="fill:#fff"/><path d="M628,357.21l2.56,0v1.29H628c-2,0-2.68.35-2.68,1.62s.67,1.7,2.68,1.7h3.92c2.29,0,3.21-.43,3.21-2.63v-1.92h1.17l.06,1.92c0,3.15-1.31,4-4.44,4H628c-2.72,0-3.9-.86-3.9-3.08S625.28,357.21,628,357.21Z" style="fill:#fff"/><path d="M628.34,354.66c-2.89,0-4.22-1-4.22-3.27s1.33-3.28,4.22-3.28h4c2.91,0,4.25,1,4.25,3.28s-1.34,3.27-4.25,3.27Zm7-3.27c0-1.47-.93-1.9-3-1.9h-4c-2.07,0-3,.43-3,1.9s.93,1.89,3,1.89h4C634.4,353.28,635.33,352.85,635.33,351.39Z" style="fill:#fff"/><path d="M635.15,342.2h1.17l.06.93c0,1.46-.75,2.07-2.28,2.07H619.46v-1.38H634c.93,0,1.18-.33,1.18-1Z" style="fill:#fff"/><path d="M619.63,336.62v-1.49l1,.41,2.3,1.27v1.12Zm8.71,3.86c-2.89,0-4.22-1-4.22-3.28s1.33-3.28,4.22-3.28h4c2.91,0,4.25,1,4.25,3.28s-1.34,3.28-4.25,3.28Zm7-3.28c0-1.47-.93-1.9-3-1.9h-4c-2.07,0-3,.43-3,1.9s.93,1.9,3,1.9h4C634.4,339.1,635.33,338.67,635.33,337.2Z" style="fill:#fff"/><path d="M632.93,328.49l1.53.88.09,0v-2c0-2.16.93-3.11,2.74-3.11,2,0,3.06,1.32,3.06,3.63,0,2.54-.91,3.7-2.78,3.7a3.32,3.32,0,0,1-2.46-1.1l-.58.28-1.9-1.12c-.52,1.08-1.77,1.56-4.07,1.56-3.26,0-4.44-.93-4.44-3.19a3.18,3.18,0,0,1,.51-2l-1.08-1.35,1-.74,1.15,1.32a7.46,7.46,0,0,1,2.91-.43c3.25,0,4.4.9,4.4,3.15A2.17,2.17,0,0,1,632.93,328.49Zm-4.37-2.29c-2.5,0-3.28.39-3.28,1.84s.78,1.85,3.28,1.85,3.23-.39,3.23-1.85S631,326.2,628.56,326.2Zm10.6,1.71c0-1.53-.56-2.33-1.85-2.33s-1.6.6-1.6,2.15v1.9a2.32,2.32,0,0,0,1.77.69C638.73,330.32,639.16,329.52,639.16,327.91Z" style="fill:#fff"/><path d="M620.49,320.36h2.33v1.4h-2.33Zm3.91,0h11.9v1.38H624.4Z" style="fill:#fff"/><path d="M628,311.35l2.56,0v1.29H628c-2,0-2.68.35-2.68,1.62S626,316,628,316h3.92c2.29,0,3.21-.43,3.21-2.63v-1.92h1.17l.06,1.92c0,3.15-1.31,4-4.44,4H628c-2.72,0-3.9-.86-3.9-3.08S625.28,311.35,628,311.35Z" style="fill:#fff"/><path d="M628.34,308.8c-2.89,0-4.22-1-4.22-3.28s1.33-3.27,4.22-3.27h4c2.91,0,4.25,1,4.25,3.27s-1.34,3.28-4.25,3.28Zm7-3.28c0-1.46-.93-1.89-3-1.89h-4c-2.07,0-3,.43-3,1.89s.93,1.9,3,1.9h4C634.4,307.42,635.33,307,635.33,305.52Z" style="fill:#fff"/><rect x="140.62" y="97.99" width="1" height="139.4" style="fill:#fff"/><rect x="140.62" y="270.99" width="1" height="139.4" style="fill:#fff"/></svg>